<?xml version="1.0" standalone="no"?>
<!DOCTYPE svg PUBLIC "-//W3C//DTD SVG 20010904//EN"
 "http://www.w3.org/TR/2001/REC-SVG-20010904/DTD/svg10.dtd">
<svg version="1.0" xmlns="http://www.w3.org/2000/svg"
 width="676.000000pt" height="369.000000pt" viewBox="0 0 676.000000 369.000000"
 preserveAspectRatio="xMidYMid meet">

<g transform="translate(0.000000,369.000000) scale(0.100000,-0.100000)"
fill="#000000" stroke="none">
<path d="M2998 3443 c-38 -92 -60 -136 -100 -198 -111 -173 -127 -217 -135
-357 -4 -69 -10 -108 -17 -108 -6 1 -31 26 -56 56 -52 64 -233 246 -270 271
-14 10 -36 28 -50 41 -14 12 -69 52 -122 88 -114 77 -154 85 -213 40 -46 -36
-66 -66 -72 -114 -8 -61 6 -75 114 -116 94 -35 204 -94 287 -153 92 -65 253
-214 264 -244 2 -5 -17 -9 -43 -9 -72 0 -146 -25 -311 -107 -132 -64 -161 -75
-222 -80 -44 -4 -73 -11 -76 -19 -9 -25 72 -110 148 -153 31 -18 62 -25 124
-29 45 -3 82 -7 82 -9 0 -3 -24 -39 -52 -81 -100 -146 -213 -237 -333 -267
-29 -7 -40 -15 -40 -28 0 -50 266 -85 384 -51 22 7 23 5 17 -27 -50 -277 -24
-487 85 -688 171 -312 494 -548 974 -710 230 -78 532 -144 735 -162 410 -35
648 124 746 497 21 81 44 322 44 462 0 194 -30 486 -65 637 -8 33 -22 91 -30
129 -26 111 -101 313 -159 431 -133 270 -302 441 -526 530 -154 62 -287 74
-507 49 l-52 -6 23 48 c37 77 52 190 36 277 -22 124 -67 182 -85 109 -9 -40
-72 -131 -119 -175 -35 -32 -210 -157 -220 -157 -2 0 -6 35 -10 78 -11 121
-50 220 -117 297 -37 42 -46 43 -61 8z m67 -97 c41 -70 64 -166 62 -254 -2
-72 -4 -81 -37 -122 -46 -58 -67 -106 -76 -169 -5 -42 -4 -51 9 -51 9 0 18 13
22 31 11 49 55 127 101 178 23 25 93 81 157 124 116 79 155 115 214 196 l32
44 8 -29 c11 -39 9 -160 -4 -211 -32 -131 -222 -325 -361 -369 -65 -21 -142
-70 -142 -91 0 -17 1 -17 105 22 107 40 217 44 320 11 44 -15 112 -31 150 -38
39 -6 72 -12 74 -14 12 -10 -131 -112 -219 -155 -146 -72 -309 -75 -457 -7
-98 45 -118 37 -89 -33 29 -69 37 -149 22 -220 -17 -80 -44 -134 -144 -298
l-76 -123 -29 63 c-94 210 -99 307 -23 457 21 41 23 52 12 52 -41 0 -94 -99
-120 -222 -14 -63 -172 -216 -247 -239 -131 -41 -190 -46 -276 -26 l-52 12 61
30 c83 40 166 119 246 234 78 113 152 191 210 220 40 21 58 38 49 47 -10 10
-119 -36 -157 -66 -74 -59 -197 -51 -299 18 -64 44 -75 62 -35 62 39 0 101 24
229 91 155 80 254 108 333 94 28 -5 45 -17 71 -51 19 -24 32 -46 30 -47 -2 -2
-17 -7 -34 -13 -16 -5 -31 -17 -33 -27 -5 -24 42 -23 113 4 67 25 124 88 142
156 22 84 -16 101 -42 19 -5 -17 -10 -14 -34 23 -39 58 -55 143 -47 239 8 94
41 181 106 282 27 41 64 105 82 142 18 37 36 67 40 68 4 0 19 -20 33 -44z
m-838 -147 c108 -71 187 -140 333 -289 113 -115 232 -254 270 -315 13 -22 12
-26 -9 -49 l-24 -26 -21 28 c-12 15 -30 38 -41 51 -153 181 -207 233 -338 328
-96 69 -259 156 -340 180 l-49 14 5 42 c4 30 15 50 38 71 43 38 77 32 176 -35z
m1608 -281 c7 -8 5 -9 -5 -3 -12 6 -13 5 -3 -5 9 -10 9 -18 1 -33 -8 -16 -7
-23 7 -33 12 -9 16 -22 13 -44 -3 -18 1 -35 9 -41 16 -14 17 -41 1 -57 -9 -9
-9 -15 0 -24 15 -15 16 -54 2 -63 -18 -11 -10 -23 13 -19 12 2 16 2 9 -2 -18
-9 -43 -74 -36 -96 3 -11 -2 -31 -12 -46 -10 -15 -17 -37 -16 -48 2 -12 -4
-29 -13 -38 -10 -9 -14 -24 -10 -35 4 -13 -2 -25 -20 -39 -15 -12 -25 -30 -25
-46 0 -15 -8 -31 -20 -38 -11 -7 -20 -23 -20 -35 0 -13 -9 -28 -21 -35 -11 -7
-27 -28 -34 -45 -8 -18 -21 -33 -30 -33 -8 0 -20 -11 -25 -25 -5 -14 -15 -25
-21 -25 -6 0 -9 7 -5 15 6 16 -9 21 -19 5 -3 -5 4 -20 15 -33 16 -19 36 -26
80 -31 32 -4 71 -13 87 -21 57 -29 123 -103 123 -138 0 -47 -104 -153 -197
-201 -33 -17 -90 -21 -108 -8 -46 32 -90 146 -81 212 13 100 14 95 -17 93 -16
-1 -39 -13 -52 -28 -13 -14 -35 -25 -48 -25 -13 0 -32 -9 -43 -21 -10 -11 -26
-18 -36 -16 -9 3 -28 -4 -40 -15 -16 -13 -31 -18 -50 -14 -16 3 -28 2 -28 -3
0 -14 -46 -30 -60 -21 -9 6 -24 1 -42 -12 -23 -16 -31 -18 -44 -7 -11 9 -20 9
-37 0 -12 -6 -38 -11 -57 -11 -19 0 -47 0 -62 -1 -86 -2 -99 10 -42 37 27 13
40 14 59 6 18 -8 26 -8 35 4 14 16 56 19 65 4 4 -6 12 -4 22 6 11 10 27 14 47
11 18 -2 36 1 44 9 7 8 24 15 38 15 36 2 42 3 50 12 4 4 22 7 41 7 21 0 33 5
33 14 0 16 21 26 55 26 12 0 25 7 28 14 3 8 22 18 41 22 20 3 36 12 36 19 0 6
8 22 18 33 9 12 25 33 35 47 12 17 27 25 46 25 16 0 34 7 41 15 7 8 18 15 25
15 7 0 15 14 19 30 3 17 12 30 21 30 8 0 21 16 29 35 8 19 20 35 25 35 6 0 13
16 17 35 4 21 13 37 25 40 17 6 24 31 22 83 -1 7 4 11 10 9 7 -3 13 6 14 20 0
14 8 32 16 40 11 11 13 23 7 44 -7 23 -5 31 9 39 13 6 17 17 14 35 -3 14 0 32
7 40 9 11 8 20 -6 45 -10 16 -22 30 -27 30 -4 0 -5 5 -1 11 4 8 12 3 21 -12
l14 -24 -4 27 c-2 15 0 25 4 22 12 -7 11 3 -1 27 -8 13 -7 25 0 39 9 16 7 24
-5 37 -11 10 -14 24 -10 40 3 14 -1 33 -10 46 -8 12 -15 32 -15 45 0 21 3 23
28 17 15 -3 32 -11 37 -17z m210 -129 c94 -24 250 -116 319 -188 16 -17 33
-28 39 -24 6 3 7 1 3 -5 -4 -7 1 -21 11 -31 62 -67 147 -271 123 -295 -14 -14
-40 14 -98 100 -134 197 -275 327 -422 388 -68 28 -75 32 -78 50 -4 19 40 22
103 5z m-312 -126 c-13 -2 -33 -2 -45 0 -13 2 -3 4 22 4 25 0 35 -2 23 -4z
m737 -88 c0 -2 -9 -3 -19 -2 -11 0 -18 5 -15 9 4 6 34 0 34 -7z m-736 -411 c3
-8 2 -12 -4 -9 -6 3 -10 10 -10 16 0 14 7 11 14 -7z m906 -76 c11 -42 10 -52
-3 -65 -31 -32 -77 26 -77 98 0 16 7 32 17 38 26 14 49 -11 63 -71z m-2216
-253 c8 -8 28 -15 43 -15 16 0 38 -6 48 -14 13 -9 26 -11 36 -6 10 6 26 3 43
-5 16 -8 38 -12 51 -9 13 3 26 1 29 -5 4 -6 0 -11 -8 -11 -24 0 -19 -17 7 -25
19 -6 20 -8 4 -12 -10 -3 -26 -1 -35 3 -9 4 -34 8 -55 9 -21 1 -42 7 -47 14
-5 9 -17 11 -33 7 -17 -4 -33 1 -50 14 -14 11 -32 17 -41 14 -9 -3 -28 2 -43
11 -25 17 -26 18 -8 31 24 18 40 18 59 -1z m1463 -511 c-3 -3 -12 -4 -19 -1
-8 3 -5 6 6 6 11 1 17 -2 13 -5z"/>
<path d="M3790 2901 c0 -6 5 -13 10 -16 6 -3 10 1 10 9 0 9 -4 16 -10 16 -5 0
-10 -4 -10 -9z"/>
<path d="M3810 2816 c0 -9 7 -16 16 -16 9 0 14 5 12 12 -6 18 -28 21 -28 4z"/>
<path d="M3820 2729 c0 -11 5 -17 10 -14 6 3 10 13 10 21 0 8 -4 14 -10 14 -5
0 -10 -9 -10 -21z"/>
<path d="M3820 2645 c0 -8 5 -15 10 -15 6 0 10 7 10 15 0 8 -4 15 -10 15 -5 0
-10 -7 -10 -15z"/>
<path d="M3820 2566 c0 -8 5 -18 10 -21 6 -3 10 1 10 9 0 8 -4 18 -10 21 -5 3
-10 -1 -10 -9z"/>
<path d="M3800 2475 c0 -8 5 -15 10 -15 6 0 10 7 10 15 0 8 -4 15 -10 15 -5 0
-10 -7 -10 -15z"/>
<path d="M3786 2401 c-4 -7 -5 -15 -2 -18 9 -9 19 4 14 18 -4 11 -6 11 -12 0z"/>
<path d="M3750 2314 c0 -8 5 -12 10 -9 6 4 8 11 5 16 -9 14 -15 11 -15 -7z"/>
<path d="M3710 2241 c0 -6 5 -13 10 -16 6 -3 10 1 10 9 0 9 -4 16 -10 16 -5 0
-10 -4 -10 -9z"/>
<path d="M3665 2160 c4 -6 11 -8 16 -5 14 9 11 15 -7 15 -8 0 -12 -5 -9 -10z"/>
<path d="M3615 2090 c3 -5 8 -10 11 -10 2 0 4 5 4 10 0 6 -5 10 -11 10 -5 0
-7 -4 -4 -10z"/>
<path d="M3485 1989 c-4 -6 -4 -13 -1 -16 3 -4 6 -1 6 5 0 7 7 12 15 12 14 0
14 -3 0 -24 -20 -30 -7 -40 22 -16 21 17 21 18 4 34 -20 19 -37 21 -46 5z"/>
<path d="M3440 1929 c0 -5 5 -7 10 -4 6 3 10 8 10 11 0 2 -4 4 -10 4 -5 0 -10
-5 -10 -11z"/>
<path d="M3568 1899 c-17 -18 -17 -19 2 -19 13 0 20 7 20 20 0 24 0 24 -22 -1z"/>
<path d="M3365 1890 c-3 -5 1 -10 10 -10 9 0 13 5 10 10 -3 6 -8 10 -10 10 -2
0 -7 -4 -10 -10z"/>
<path d="M3288 1843 c7 -3 16 -2 19 1 4 3 -2 6 -13 5 -11 0 -14 -3 -6 -6z"/>
<path d="M3200 1820 c-13 -8 -12 -10 3 -10 9 0 17 5 17 10 0 12 -1 12 -20 0z"/>
<path d="M3110 1790 c0 -5 5 -10 10 -10 6 0 10 5 10 10 0 6 -4 10 -10 10 -5 0
-10 -4 -10 -10z"/>
<path d="M3020 1770 c0 -5 7 -10 16 -10 8 0 12 5 9 10 -3 6 -10 10 -16 10 -5
0 -9 -4 -9 -10z"/>
<path d="M2937 1763 c-4 -3 -7 -11 -7 -17 0 -6 5 -5 12 2 6 6 9 14 7 17 -3 3
-9 2 -12 -2z"/>
<path d="M2835 1750 c-3 -5 3 -10 15 -10 12 0 18 5 15 10 -3 6 -10 10 -15 10
-5 0 -12 -4 -15 -10z"/>
<path d="M2380 1826 c0 -9 7 -16 16 -16 17 0 14 22 -4 28 -7 2 -12 -3 -12 -12z"/>
<path d="M2470 1795 c0 -8 7 -15 15 -15 8 0 15 7 15 15 0 8 -7 15 -15 15 -8 0
-15 -7 -15 -15z"/>
<path d="M2560 1775 c0 -8 7 -15 15 -15 8 0 15 4 15 9 0 5 -7 11 -15 15 -9 3
-15 0 -15 -9z"/>
</g>
</svg>
